<?xml version='1.0' encoding='utf-8'?>
<svg xmlns:xlink="http://www.w3.org/1999/xlink" xmlns="http://www.w3.org/2000/svg" version="1.1" id="Layer_1" x="0px" y="0px" viewBox="0 0 512 512" style="enable-background:new 0 0 512 512;"> <style type="text/css"> .st0{clip-path:url(#SVGID_3_);} .st1{clip-path:url(#SVGID_4_);} .st2{clip-path:url(#SVGID_6_);} </style> <g> <g> <defs> <polygon id="SVGID_1_" points="76.597,446.433 435.168,446.433 435.168,65.903 76.597,65.903 76.597,446.433 "/> </defs> <defs> <polygon id="SVGID_2_" points="76.597,65.903 435.168,65.903 435.168,446.433 76.597,446.433 76.597,65.903 "/> </defs> <clipPath id="SVGID_3_"> <use xlink:href="#SVGID_1_" style="overflow:visible;"/> </clipPath> <clipPath id="SVGID_4_" class="st0"> <use xlink:href="#SVGID_2_" style="overflow:visible;"/> </clipPath> <g class="st1"> <defs> <polygon id="SVGID_5_" points="76.597,446.433 435.168,446.433 435.168,65.903 76.597,65.903 76.597,446.433 "/> </defs> <clipPath id="SVGID_6_"> <use xlink:href="#SVGID_5_" style="overflow:visible;"/> </clipPath> <path class="st2" d="M287.093,297.257h-177.26v-125.48h177.26V297.257L287.093,297.257L287.093,297.257z M294.478,148.25H102.447 c-8.124,0-14.772,7.058-14.772,15.685v141.165c0,8.627,6.647,15.685,14.772,15.685h73.858v23.528h-33.236v23.528h110.787v-23.528 H220.62v-23.528h73.858c8.124,0,14.772-7.058,14.772-15.685V163.934C309.25,155.308,302.603,148.25,294.478,148.25 L294.478,148.25z"/> <path class="st2" d="M412.651,187.462h-73.858v-23.528h73.858V187.462L412.651,187.462L412.651,187.462z M412.651,226.674 h-73.858v-23.527h73.858V226.674L412.651,226.674L412.651,226.674z M375.722,344.312c-6.278,0-11.079-5.098-11.079-11.764 c0-6.666,4.801-11.764,11.079-11.764c6.278,0,11.079,5.098,11.079,11.764C386.801,339.214,382,344.312,375.722,344.312 L375.722,344.312z M412.651,148.25h-73.858c-8.124,0-14.772,7.058-14.772,15.685v188.22c0,8.627,6.647,15.685,14.772,15.685 h73.858c8.124,0,14.772-7.058,14.772-15.685v-188.22C427.423,155.308,420.776,148.25,412.651,148.25L412.651,148.25z"/> </g> </g> </g> </svg>