<?xml version="1.0" encoding="UTF-8"?>
<svg version="1.0" viewBox="0 0 540.54 723.26" xmlns="http://www.w3.org/2000/svg">
 <g transform="translate(138.59 -46.574)">
  <path d="m-132.62 768.41c0.85524-1.3677 0.55535-5.0852-0.66636-8.2612-1.9106-4.967-5.511-209.78-5.2987-301.42 0.09822-42.39 1.2632-46.569 14.88-53.381 6.0711-3.0372 15.381-5.5222 20.689-5.5222 6.1676 0 17.092-3.5433 30.269-9.8172 22.854-10.882 27.35-11.657 33.855-5.838 4.1705 3.7304 5.2694 3.095 17.578-10.163 23.873-25.716 24.565-28.785 13.043-57.843-6.4021-16.146-6.4125-36.296-0.028137-54.53 3.6014-10.286 3.7068-13.27 0.82323-23.316-2.1995-7.6624-2.872-18.988-2.0082-33.823 1.1921-20.474 1.9192-23.001 8.8663-30.812 4.1622-4.6797 8.9979-12.314 10.746-16.965 8.1905-21.793 20.156-42.477 25.238-43.627 1.9696-0.4457 4.1504-1.6815 4.8462-2.7463 0.69578-1.0648 7.1175-5.4802 14.271-9.8121 7.153-4.3319 15.318-11.086 18.144-15.009 6.195-8.599 27.399-22.685 40.264-26.747 5.134-1.6211 8.8724-3.6867 8.3075-4.5903-0.56494-0.90362 6.4086-1.6429 15.497-1.6429 9.0882 0 20.12-1.3805 24.514-3.0679 4.3948-1.6873 16.686-2.9892 27.315-2.893l19.324 0.17484-16.14 4.8789c-8.8772 2.6834-18.934 5.4184-22.348 6.0779-5.1718 0.99888-4.7574 0.3598 2.4831-3.8294l8.691-5.0284-7.4494 1.5693c-4.0972 0.86311-8.5668 2.2129-9.9326 2.9997-1.3657 0.78672-4.6695 1.7663-7.3416 2.1769-2.6722 0.4106-5.728 2.0992-6.7906 3.7524-1.5125 2.3531-1.9404 2.3396-1.9702-0.061964-0.02324-1.8767-3.1716-2.9573-8.1082-2.7832-5.352 0.18881-6.3974 0.69778-3.1039 1.5111 4.9796 1.2296 8.5819 4.9436 8.653 8.9213 0.02091 1.1698-2.2798 1.5279-5.1126 0.7957-5.8272-1.5061-16.576 6.9406-11.455 9.0017 1.6218 0.65272 0.43454 1.274-2.6384 1.3805-5.4048 0.18743-15.672 8.1025-15.373 11.852 0.0806 1.0124-2.4336 2.5528-5.5871 3.423-3.5904 0.99082-1.3246 1.4794 6.0613 1.3069 11.395-0.26601 15.116-2.383 8.691-4.9453-1.8007-0.71817-1.2179-1.3193 1.3881-1.4317 2.4706-0.10657 3.8014-1.2982 2.9574-2.6481-2.2724-3.634 2.0778-2.9759 7.5956 1.1491 7.0018 5.2344 10.785 4.4204 4.3049-0.92606-3.0148-2.4872-4.7937-5.202-3.9532-6.0328 0.84055-0.8308 3.0279-0.28045 4.8607 1.223 2.5752 2.1124 3.3324 1.7423 3.3324-1.6288 0-4.0841 0.34367-4.0641 5.3874 0.31306 4.556 3.9539 5.155 4.0439 3.8815 0.5835-0.92464-2.5126 0.02024-4.6707 2.4481-5.5916 4.4279-1.6794 14.676 6.6292 16.964 13.753 0.79837 2.4862 2.6133 4.5204 4.0331 4.5204 1.4846 0 1.8214-1.8249 0.79252-4.295-3.5236-8.4595-4.2528-12.885-2.1233-12.885 1.1906 0 4.9066 6.9027 8.2579 15.339 3.7418 9.4198 6.4513 13.636 7.021 10.926 0.51029-2.4271-0.00254-5.7404-1.1396-7.3629-3.1188-4.4501-2.4797-22.018 0.84112-23.124 1.8541-0.61726 2.5058 1.0845 1.7975 4.694l-1.111 5.6623 2.9274-5.5222c1.6101-3.0372 3.9401-5.5222 5.1777-5.5222s1.5134 1.1783 0.61292 2.6185c-2.081 3.328 6.8539 2.0022 9.3764-1.3913 1.0034-1.3499 1.8414-0.12246 1.8624 2.7275 0.03079 4.1976 1.2171 4.959 6.2459 4.0089 4.551-0.85988 6.2079-0.11401 6.2079 2.7946 0 2.1822 1.1174 3.9676 2.4832 3.9676s2.4831-1.0698 2.4831-2.3773 1.6761-1.7416 3.7247-0.96457c2.0486 0.77699 3.7247 0.16907 3.7247-1.3509 0-3.5607 12.326-0.6551 17.057 4.0207 1.8968 1.8747 4.8618 2.8727 6.5889 2.2176 4.6086-1.7479 14.058 9.1478 12.164 14.026-0.86758 2.2346-2.5753 4.063-3.7949 4.063s-2.1803 1.9328-2.1349 4.295c0.06975 3.6267 0.83034 3.4083 4.8882-1.4037 2.643-3.1343 8.8332-6.7979 13.756-8.1413 9.6013-2.6202 15.146-0.31684 28.335 11.771 4.0061 3.6715 7.0212 4.8175 8.5914 3.2655 2.7553-2.7234-9.8828-17.149-15.024-17.149-10.259 0-28.214-5.7013-28.214-8.9588 0-2.5266-1.5224-3.1659-4.9663-2.0855-8.8171 2.7659-5.2681-2.8887 4.3455-6.9238 7.3118-3.0689 7.9785-3.7994 3.1039-3.4009-3.4143 0.27911-6.0198-0.60224-5.79-1.9586 0.22979-1.3563-2.5637-2.5138-6.2078-2.5721-26.481-0.42385-35.318-1.3487-33.94-3.5519 0.92823-1.4844-2.5062-2.4543-8.691-2.4543-7.0525 0-9.68-0.87268-8.4672-2.8122 1.2455-1.9918-0.34168-2.3389-5.4406-1.1895-6.9497 1.5665-7.027 1.4857-2.2327-2.3352 4.7601-3.7936 4.6312-3.8889-3.1039-2.2969-5.3632 1.1038-8.0702 0.7237-8.0702-1.1332 0-1.5368 0.91818-2.2333 2.0404-1.5478 1.1222 0.68553 4.7538-0.10158 8.0702-1.7491 10.711-5.3213 50.253-2.5575 83.517 5.8373 21.285 5.3718 29.971 10.525 34.742 20.613 1.9442 4.1111 5.1275 10.236 7.0741 13.611 1.9466 3.3747 3.5912 8.3446 3.6548 11.044 0.13017 5.528 5.4887 13.499 9.075 13.499 1.2991 0 4.8075 2.2519 7.7965 5.0042 4.18 3.849 5.4345 4.1644 5.4345 1.3663 0-2.0008-2.4468-5.3318-5.4373-7.4021-7.2785-5.0388-4.0557-7.5195 8.5963-6.6166 20.672 1.4752 33.504 13.616 34.664 32.796 0.46008 7.6089 1.6265 10.657 3.7701 9.8523 2.1565-0.80955 3.2215 2.0989 3.4892 9.5281 0.21191 5.8813 0.73695 15.663 1.1668 21.738 0.42983 6.0744-0.52374 14.91-2.119 19.634-1.5953 4.7245-2.5806 10.687-2.1896 13.25 0.44639 2.9264-3.4287 8.4706-10.416 14.902-9.7269 8.9534-11.594 12.38-14.842 27.246-5.274 24.134-11.761 50.12-14.661 58.727-1.3641 4.0496-2.5632 8.7507-2.6647 10.447s-3.4581 6.6661-7.4591 11.044c-7.0249 7.6871-7.2208 8.5645-5.7085 25.557 1.0052 11.294 0.63157 18.167-1.043 19.19-1.435 0.87659-1.8595 2.7926-0.94337 4.2577 0.93412 1.4938 0.52216 1.9653-0.93791 1.0734-1.4879-0.90888-4.4091 2.8696-6.8169 8.8172-2.3173 5.7242-5.0236 10.963-6.0141 11.642-5.5792 3.824-19.939 28.808-28.047 48.797-10.695 26.37-18.064 39.23-30.28 52.843-4.7362 5.2782-9.2956 12.292-10.132 15.586-4.8761 19.202-26.228 28.785-51.361 23.051-13.707-3.1272-17.904-1.6439-20.23 7.1499-0.91695 3.4656 0.82917 6.464 5.9387 10.198 3.9806 2.9088 14.975 15.297 24.431 27.53 18.861 24.399 22.355 28.151 59.344 63.732 13.9 13.371 25.273 25.448 25.273 26.839 0 1.3907 2.0783 4.8086 4.6184 7.5954 4.0482 4.4412 10.129 21.37 10.856 30.223 0.13864 1.6873 1.1832 3.0679 2.3213 3.0679s2.0693 1.988 2.0693 4.4177c0 2.4298 1.0485 5.467 2.33 6.7493 1.2815 1.2824 3.1016 8.1299 4.0446 15.217l1.7146 12.885-14.598 0.43465c-8.0289 0.23907-47.562 0.60217-87.851 0.80688s-137.92 1.2208-216.95 2.258c-96.891 1.2715-143.19 1.0758-142.14-0.60092zm40.366-5.9289c-1.5624-0.99173-8.0553-1.82-14.429-1.8407-6.9154-0.02243-12.093-1.2746-12.84-3.1054-0.68884-1.6873-1.3407-0.62939-1.4485 2.351-0.18433 5.0949 0.75319 5.3884 15.681 4.9086 8.7325-0.28066 14.599-1.3217 13.037-2.3134zm88.415-1.1561c-3.0729-0.58501-8.1013-0.58501-11.174 0-3.0729 0.58498-0.5587 1.0636 5.5871 1.0636s8.66-0.47864 5.5871-1.0636zm27.388-3.2739c-0.72846-2.7533-1.8793-4.4576-2.5574-3.7873-1.3434 1.3278 1.0295 8.7932 2.7949 8.7932 0.59786 0 0.49101-2.2527-0.23744-5.0059zm49.787 1.1187c-1.2169-3.1344-1.9232-3.2532-3.6468-0.61357-1.7495 2.6793-2.5815 2.6053-4.5827-0.40778-1.6351-2.4618-2.4577-2.6651-2.4831-0.61357-0.021856 1.7642-3.2036 3.0679-7.4875 3.0679s-7.4656-1.3037-7.4874-3.0679c-0.027247-2.1984-0.55511-2.2788-1.8624-0.28393-1.0034 1.5312-4.0592 3.3358-6.7906 4.0103-2.7315 0.67449 4.2173 1.3545 15.442 1.5111 17.67 0.24651 20.206-0.23682 18.899-3.6025zm22.754 1.461c0.86995-1.3912-0.12678-1.8027-2.3366-0.96456-4.3019 1.6316-5.0889 3.3908-1.5171 3.3908 1.2851 0 3.0193-1.0918 3.8537-2.4262zm18.916-0.64168c0.15118-1.6873 0.0842-5.4549-0.14884-8.3724s0.71371-16.171 2.1039-29.452c1.3902-13.281 3.2048-31.326 4.0326-40.1 0.82773-8.7741 2.595-22.996 3.9272-31.604 1.3322-8.6083 1.8937-16.174 1.2478-16.812-3.4827-3.4422-6.5059 3.727-6.765 16.042-0.1616 7.682-1.0234 17.281-1.915 21.33-1.8544 8.4218-4.3439 6.162-9.463-8.59-2.8247-8.1402-2.9216-7.8189-1.8503 6.1358 0.62178 8.0992 1.4044 32.67 1.7392 54.603 0.45708 29.941 1.3822 39.878 3.7127 39.882 1.7072 0.0031 3.2276-1.3749 3.3788-3.0622zm23.244-31.292c1.9156-8.7741 4.7193-28.696 6.2304-44.271 1.5112-15.575 4.4171-36.007 6.4577-45.405s4.3052-20.4 5.0325-24.449l1.3224-7.3629-6.1309 7.0919c-3.372 3.9006-7.8511 12.184-9.9535 18.407-2.5408 7.5209-3.874 9.3981-3.9758 5.5982-0.15768-5.884 11.62-37.497 14.786-39.687 0.9756-0.67494 2.5436-3.666 3.4845-6.6469 1.5024-4.7599-0.19522-6.3672-13.943-13.202-8.6098-4.28-16.213-8.4677-16.896-9.306-0.68286-0.83831-3.8039-3.6711-6.9355-6.2952-5.6392-4.7251-5.6788-4.7251-4.1204 0 0.86547 2.624 2.4744 6.9799 3.5753 9.6796s5.0999 13.744 8.8866 24.543 7.5845 20.187 8.4394 20.862c1.4912 1.1772 1.0014 7.8306-4.6072 62.585-1.3827 13.499-2.4895 37.796-2.4596 53.995 0.05304 28.719 0.14479 29.207 3.6895 19.634 1.9993-5.3994 5.2024-16.996 7.118-25.77zm27.65 30.564c1.8132-7.0619 2.3447-30.6 0.6779-30.02-3.2651 1.1368-22.049 27.111-22.049 30.489 0 3.7249 20.409 3.2768 21.371-0.46929zm-135.6-1.1124c0-1.3499-1.1834-2.4543-2.6297-2.4543s-1.9391 1.1044-1.095 2.4543c0.84407 1.3499 2.0274 2.4543 2.6297 2.4543 0.60227 0 1.095-1.1044 1.095-2.4543zm175.63 0.97148c-0.82514-0.81555-2.9668-0.90272-4.7594-0.19375-1.9809 0.78347-1.3925 1.365 1.5002 1.4828 2.6176 0.10657 4.0842-0.4735 3.2591-1.289zm-145.83-2.0538c0-0.59527-1.1174-1.7649-2.4831-2.5992-1.3657-0.83427-2.4831-0.34723-2.4831 1.0823 0 1.4295 1.1174 2.5992 2.4831 2.5992s2.4831-0.48703 2.4831-1.0823zm-28.601-11.329c-1.1926-3.714-2.3274-4.4781-3.6083-2.4296-1.0277 1.6435-2.5816 2.8939-3.4532 2.7786-4.6629-0.6168-6.551 0.04361-6.551 2.2914 0 1.4423 2.628 1.8491 6.2079 0.96109 4.1906-1.0396 6.2079-0.52307 6.2079 1.5894 0 1.7212 0.66074 2.4764 1.4683 1.6782 0.80757-0.79819 0.6854-3.8893-0.27148-6.8691zm37.747 2.1334c-0.79267-1.9579-1.3811-1.3763-1.5002 1.4828-0.10782 2.5872 0.47908 4.0368 1.3042 3.2213 0.82512-0.81554 0.91335-2.9324 0.19602-4.7041zm-6.6625-6.9027c0-1.3499-1.1174-2.4543-2.4831-2.4543s-2.4831 1.1044-2.4831 2.4543 1.1174 2.4543 2.4831 2.4543 2.4831-1.1044 2.4831-2.4543zm-87.697-5.3688c-0.79268-1.9579-1.3811-1.3763-1.5002 1.4828-0.10782 2.5872 0.47907 4.0368 1.3042 3.2213 0.82513-0.81553 0.91335-2.9324 0.19602-4.7041zm331.7-0.15339c1.3239-3.7892-3.1457-14.112-6.1103-14.112-1.1946 0-0.92914 2.2952 0.58979 5.1004 1.5189 2.8052 2.152 6.6707 1.4069 8.59-0.74517 1.9193-0.36562 3.4897 0.84343 3.4897 1.2091 0 2.6806-1.3805 3.2702-3.0679zm-127.16-28.745c7.5868-7.4756 19.599-18.882 26.694-25.348 7.0948-6.466 12.9-13.425 12.9-15.464 0-7.9156-38.584-91.848-42.198-91.794-2.8057 0.04219-12.484 19.905-15.121 31.035-4.2891 18.098-9.602 48.423-8.6485 49.366 0.46564 0.46023 2.3203-5.0211 4.1214-12.181 3.9493-15.699 4.0326-16.06 4.4239-19.153 0.17072-1.3499 1.3498-2.4543 2.6202-2.4543 1.4243 0 1.4243 3.0517 0 7.9603-2.5311 8.723-2.9629 20.554-0.51564 14.128 0.77114-2.0248 2.3903-6.3196 3.5981-9.544 3.9084-10.434 4.4686-4.0881 0.72451 8.2079-5.3851 17.686-4.5408 24.411 1.4313 11.401 5.8766-12.802 9.097-12.341 3.6587 0.52335-4.6428 10.983-4.651 11.685-0.1166 9.9651 3.8112-1.4455 3.281 0.56594-12.543 47.575-7.4523 22.139-7.5412 25.733-0.40978 16.557 3.0729-3.9538 11.794-13.305 19.381-20.781zm-297.81 13.978c-2.4524-2.4058-2.7376-2.124-1.3901 1.3739 0.93249 2.4205 2.321 3.7826 3.0855 3.027 0.76454-0.75565 0.00159-2.736-1.6954-4.4009zm177.37-6.9506c-2.0161-4.5913-3.7094-7.0193-3.7628-5.3954-0.11951 3.6306 5.3411 15.806 6.5522 14.609 0.48197-0.47638-0.77321-4.6227-2.7893-9.214zm-5.1016 0.2422c-0.93227-2.9032-2.2537-4.7263-2.9366-4.0514-0.68287 0.67493-0.47882 3.6025 0.45344 6.5057 0.93227 2.9032 2.2537 4.7263 2.9366 4.0514 0.68287-0.67492 0.47882-3.6025-0.45345-6.5057zm17.837 1.9941c-0.79268-1.9579-1.3811-1.3763-1.5002 1.4828-0.10782 2.5872 0.47908 4.0368 1.3042 3.2213 0.82513-0.81554 0.91335-2.9324 0.19602-4.7041zm-192.9-10.584c-3.8677-11.583-5.6074-9.8637-2.2348 2.2089 1.4283 5.1127 3.1855 8.714 3.9049 8.0029 0.71942-0.71105-0.03211-5.3064-1.6701-10.212zm197.86 5.6756c-0.79267-1.9579-1.3811-1.3763-1.5002 1.4828-0.10782 2.5872 0.47908 4.0368 1.3042 3.2213 0.82513-0.81554 0.91336-2.9324 0.19602-4.7041zm223.83-0.15339c-0.18249-7.4755-4.6179-19.021-7.3072-19.021-2.8057 0-2.8573-0.37931 1.7762 13.061 4.3935 12.745 5.7318 14.186 5.531 5.9594zm-265.25-4.295c0-1.3499-1.6761-2.4543-3.7247-2.4543s-3.7247 1.1044-3.7247 2.4543 1.6761 2.4543 3.7247 2.4543 3.7247-1.1044 3.7247-2.4543zm34.764-2.4543c0-2.6997-1.0128-4.9086-2.2507-4.9086s-1.6662 2.2088-0.95196 4.9086c0.7143 2.6997 1.7271 4.9086 2.2507 4.9086s0.95196-2.2089 0.95196-4.9086zm4.1277-5.5222c-0.68884-1.6873-1.2524-0.30678-1.2524 3.0679 0 3.3746 0.5636 4.7552 1.2524 3.0679 0.68884-1.6873 0.68884-4.4484 0-6.1358zm8.1135 6.1358c-0.096004-1.0124-1.1349-4.0496-2.3086-6.7493-1.8911-4.3496-2.154-4.14-2.3086 1.8407-0.096004 3.7121 0.94287 6.7493 2.3086 6.7493 1.3657 0 2.4046-0.82832 2.3086-1.8407zm4.3539-3.528c-0.79268-1.9579-1.3811-1.3763-1.5002 1.4828-0.10781 2.5872 0.47907 4.0368 1.3042 3.2213 0.82513-0.81554 0.91335-2.9324 0.19602-4.7041zm6.9947 0.46018c0.84406-1.3499 0.35131-2.4543-1.095-2.4543-1.4463 0-2.6297 1.1044-2.6297 2.4543s0.49275 2.4543 1.095 2.4543c0.60226 0 1.7856-1.1044 2.6297-2.4543zm-39.327-7.9765c-0.68886-1.6873-1.2525-0.30678-1.2525 3.0679 0 3.3747 0.5636 4.7552 1.2525 3.0679 0.68884-1.6873 0.68884-4.4484 0-6.1358zm6.108 1.4112c-2.9272-4.9754-3.6341-3.3829-1.2379 2.7889 0.8516 2.1934 2.0714 3.471 2.7108 2.8391 0.63933-0.63191-0.023445-3.1645-1.4728-5.628zm-70.821-7.1699c-0.80203-2.0658-2.5836-3.0686-3.959-2.2285-1.3754 0.84015-2.5007-0.37833-2.5007-2.7078 0-2.3294-0.66074-3.5823-1.4683-2.7841-2.3002 2.2735 1.5503 11.878 4.1302 10.302 1.2674-0.77419 2.3926 0.5903 2.5004 3.0322 0.11971 2.7116 0.69421 3.2141 1.4758 1.291 0.70388-1.7318 0.62354-4.8391-0.17851-6.9049zm67.196-8.9671c-0.68885-1.6873-1.2525-0.30679-1.2525 3.0679 0 3.3747 0.5636 4.7552 1.2525 3.0679 0.68884-1.6873 0.68884-4.4484 0-6.1357zm10.983 4.4246c1.2491 0.76299 2.2711 0.28631 2.2711-1.0593 0-1.3456-2.1121-2.2894-4.6935-2.0972-3.0789 0.22924-4.2034 1.6116-3.269 4.0184 0.96993 2.4983 1.7429 2.7248 2.4224 0.70988 0.54888-1.6275 2.0199-2.3348 3.269-1.5718zm13.732-8.7983c0-8.6418-0.6737-11.16-2.2436-8.3877-1.8641 3.2922-0.52478 20.738 1.592 20.738 0.35833 0 0.65154-5.5576 0.65154-12.35zm8.4045 8.8136c0-0.59526-1.1174-1.7649-2.4831-2.5992-1.3657-0.83426-2.4831-0.34722-2.4831 1.0823 0 1.4295 1.1174 2.5992 2.4831 2.5992s2.4831-0.48703 2.4831-1.0823zm-102.6-6.7408c-0.79267-1.9579-1.3811-1.3763-1.5002 1.4828-0.10782 2.5872 0.47908 4.0368 1.3042 3.2213 0.82513-0.81553 0.91335-2.9324 0.19602-4.7041zm85.425-4.7057c-2.1875-5.4052-2.3918-5.4668-2.5365-0.76536-0.086587 2.8122 0.58754 5.8494 1.498 6.7493 2.9658 2.9314 3.4702 0.02471 1.0384-5.984zm-34.975 4.0836c0-0.59527-1.1174-1.7649-2.4831-2.5992-1.3657-0.83426-2.4831-0.34723-2.4831 1.0823s1.1174 2.5992 2.4831 2.5992 2.4831-0.48703 2.4831-1.0823zm-55.156-13.979c-0.61989-1.8381-1.7455-0.72562-2.6236 2.5931-1.0801 4.0824-0.75693 5.0406 1.0857 3.2193 1.4429-1.4262 2.135-4.0418 1.5378-5.8124zm7.1896 2.3296c-0.79268-1.9579-1.3811-1.3763-1.5002 1.4828-0.10782 2.5872 0.47907 4.0368 1.3042 3.2213 0.82513-0.81556 0.91335-2.9324 0.19602-4.7041zm-75.882-2.6486c-2.4524-2.4058-2.7376-2.124-1.3901 1.3739 0.9325 2.4205 2.321 3.7826 3.0855 3.027 0.76453-0.75564 0.001589-2.736-1.6954-4.4009zm118.88-10.39c0-3.3746-1.1174-6.1357-2.4831-6.1357s-2.4831 2.7611-2.4831 6.1357c0 3.3747 1.1174 6.1358 2.4831 6.1358s2.4831-2.7611 2.4831-6.1358zm58.833-3.0212c-0.62958-2.388-1.1861-1.0284-1.2367 3.0212-0.050603 4.0496 0.46449 6.0034 1.1447 4.3417 0.68018-1.6616 0.72159-4.9749 0.092006-7.3629zm-122.26 4.4179c0.78573-1.2566 0.29296-2.9784-1.095-3.8263-1.388-0.84786-2.5236 0.18025-2.5236 2.2847 0 4.311 1.49 4.9458 3.6187 1.5416zm-69.447-2.6639c-0.85781-1.3719-2.5999-1.8589-3.8713-1.0823-1.2714 0.77661-2.3116-0.24465-2.3116-2.2694 0-2.0248-0.95598-4.2654-2.1244-4.9792-1.1684-0.71375-1.5969 1.43-0.95211 4.7638 0.76739 3.9677 2.8384 6.0615 5.9957 6.0615 2.6529 0 4.1215-1.1224 3.2637-2.4943zm61.17-3.0688c-2.4524-2.4058-2.7376-2.124-1.3901 1.3739 0.9325 2.4205 2.321 3.7826 3.0855 3.027 0.76453-0.75566 0.001581-2.736-1.6954-4.4009zm89.473-14.308c-0.46948-8.6438-1.8663-16.765-3.1039-18.048-1.2376-1.2824-2.2503-6.6205-2.2503-11.862 0-6.5404-0.97391-9.2062-3.1039-8.496-3.4549 1.1518-3.6615 7.5226-1.033 31.863 2.1022 19.466 3.7422 24.511 7.5468 23.214 1.8079-0.61652 2.4959-6.5154 1.9443-16.67zm-79.129 7.5998c-0.71431-2.6997-1.7271-4.9086-2.2507-4.9086-0.52357 0-0.95196 2.2089-0.95196 4.9086s1.0128 4.9086 2.2507 4.9086 1.6663-2.2089 0.95196-4.9086zm-82.663-5.9604c0-0.77135-1.6761-1.4025-3.7247-1.4025-2.1492 0-3.8076-2.3359-3.9208-5.5222-0.11292-3.1807-0.76681-4.1036-1.5422-2.1766-1.1168 2.7757-1.6949 2.7878-3.3937 0.07107-1.1261-1.801-2.7732-2.5572-3.6602-1.6806-0.88695 0.87664 0.72844 3.5751 3.5897 5.9965 2.8613 2.4215 5.2023 6.445 5.2023 8.9411 0 4.0342 0.41387 4.1294 3.7247 0.85702 2.0486-2.0248 3.7247-4.3126 3.7247-5.0839zm69.894-14.018c-1.3204-4.5351-2.5015-6.4032-2.6247-4.1513-0.12316 2.2519-0.88808 6.1174-1.6998 8.59-1.2274 3.739-1.0248 3.8761 1.2036 0.8143 2.2818-3.1351 2.685-2.9834 2.7174 1.0226 0.020919 2.5872 0.66042 4.0889 1.4212 3.337 0.76071-0.7519 0.30279-5.0776-1.0176-9.6127zm116.49 3.8465c6.3934-7.6141 21.709-13.319 35.756-13.319 7.5659 0 13.756-0.35642 13.756-0.79208 0-0.43563-4.5402-11.756-10.089-25.157-5.5492-13.4-11.006-27.126-12.126-30.5-1.1203-3.3746-6.0781-14.833-11.017-25.463-4.9392-10.63-8.9804-20.647-8.9804-22.259s-4.5252-8.9295-10.056-16.26c-5.5308-7.3306-11.956-15.907-14.278-19.059-2.3221-3.1519-9.2504-12.195-15.396-20.095-6.1458-7.9004-14.058-18.575-17.582-23.721-5.1719-7.5514-12.915-12.615-40.133-26.244l-33.725-16.887-7.0467 4.7041c-3.8757 2.5872-10.108 6.2252-13.849 8.0843-6.583 3.2712-6.6459 3.4885-1.9506 6.739 2.6685 1.8474 9.0817 4.8354 14.252 6.6402 9.6656 3.3741 52.076 27.311 56.67 31.986 1.4152 1.44 5.8849 7.035 9.9326 12.433 4.0477 5.3984 9.3833 12.025 11.857 14.726 11.265 12.299 20.108 43.106 19.375 67.495-1.5159 50.455-1.4597 52.357 1.5794 53.369 2.1735 0.72432 3.1039-2.2246 3.1039-9.8375 0-22.708 3.3234-55.803 5.6038-55.803 1.3073 0 1.6609 1.8445 0.78564 4.0988-0.87524 2.2544-0.39424 4.8301 1.0689 5.7238 1.4631 0.89377 4.4348 11.178 6.6038 22.853s4.7701 20.723 5.7801 20.106c2.8562-1.7447 5.2769 24.887 3.4794 38.28-1.6773 12.497 0.61435 15.319 6.6267 8.1585zm5.0117-58.928c0.11915-2.8591 0.70755-3.4407 1.5002-1.4828 0.71733 1.7717 0.6291 3.8885-0.19602 4.7041-0.82514 0.81554-1.412-0.63404-1.3042-3.2213zm0-17.18c0.11915-2.8591 0.70755-3.4407 1.5002-1.4828 0.71733 1.7717 0.6291 3.8885-0.19602 4.7041-0.82514 0.81552-1.412-0.63406-1.3042-3.2213zm-7.6455-9.7575c0-2.1045 1.1174-3.1437 2.4831-2.3094 1.3657 0.83427 2.4831 2.5561 2.4831 3.8263s-1.1174 2.3094-2.4831 2.3094-2.4831-1.7218-2.4831-3.8263zm-188.41 79.255c-2.4524-2.4058-2.7376-2.124-1.3901 1.3739 0.9325 2.4205 2.321 3.7826 3.0855 3.027 0.76452-0.75567 0.00158-2.736-1.6954-4.4009zm-5.2744 0.79934c0-1.2702-1.1174-2.992-2.4831-3.8263-1.3657-0.83428-2.4832 0.20497-2.4832 2.3094s1.1174 3.8263 2.4832 3.8263 2.4831-1.0392 2.4831-2.3094zm73.511-4.3888c-2.5242-2.4948-4.6069 1.2612-2.5358 4.5733 1.5645 2.502 2.1494 2.5039 2.9905 0.00991 0.5751-1.7052 0.37051-3.7676-0.45461-4.5832zm-8.9497-5.1727c0-2.32 2.2968-6.162 5.1039-8.5376 3.7258-3.1531 4.6094-5.7854 3.2725-9.7491-1.0073-2.9864-1.8674-7.3625-1.9113-9.7247-0.043929-2.3623-1.0882-4.295-2.3205-4.295-1.2324 0-1.6558 2.2104-0.94104 4.912 0.7148 2.7016 0.37185 4.3453-0.7621 3.6526-3.8482-2.3507-10.377-25.949-8.847-31.976 1.7867-7.0362-3.1631-28.641-6.1446-26.82-1.1239 0.68656-3.3065-0.70769-4.8501-3.0984-2.4178-3.7445-2.6157-3.4967-1.4281 1.7891 0.75817 3.3747 1.4109 7.7924 1.4505 9.8172 0.062949 3.222 0.36023 3.2309 2.382 0.07108 2.9463-4.6046 3.9875-3.3161 5.8926 7.2918 1.5383 8.566 1.5321 8.5729-2.23 2.4543-2.9029-4.7211-3.4897-5.004-2.5454-1.2272 1.7882 7.1522 3.4038 17.705 2.1605 14.112-0.58389-1.6873-2.2166-3.0679-3.6283-3.0679s-1.8885 1.747-1.0595 3.8822 1.5072 4.3441 1.5072 4.9086c0 0.56451 1.4285 1.0264 3.1744 1.0264s5.0981 6.4052 7.4494 14.234c4.5993 15.313 5.4754 23.604 2.2885 21.657-1.0926-0.66743-1.9865 2.5094-1.9865 7.0595s0.89393 7.7269 1.9865 7.0595c1.0926-0.6674 1.9865-3.1117 1.9865-5.4318zm2.4831-15.126c0-1.3499 1.1174-2.4543 2.4831-2.4543s2.4831 1.1044 2.4831 2.4543-1.1174 2.4543-2.4831 2.4543-2.4831-1.1044-2.4831-2.4543zm-69.528 12.272c-1.4618-2.6997-3.2166-4.9086-3.8995-4.9086-0.68286 0-0.04551 2.2089 1.4163 4.9086 1.4618 2.6997 3.2166 4.9086 3.8994 4.9086 0.68288 0 0.04552-2.2089-1.4163-4.9086zm80.702-2.4543c0.84407-1.3499 0.41725-2.4543-0.94848-2.4543-1.3657 0-3.1737 1.1044-4.0178 2.4543-0.84407 1.3499-0.41725 2.4543 0.94848 2.4543 1.3657 0 3.1737-1.1044 4.0178-2.4543zm-40.312-21.502c1.9424-2.4275 3.1829-2.1628 5.7509 1.2272 2.9631 3.9114 3.1654 3.7391 2.1287-1.8135-0.6301-3.3747-0.48141-4.7552 0.33043-3.0679 0.81181 1.6873 3.3384 3.0848 5.6146 3.1054 3.5795 0.03252 3.6354 0.35901 0.41387 2.4167-3.038 1.9405-2.7376 2.3861 1.6299 2.4167 3.8859 0.02726 5.0429-1.1407 4.218-4.2583-1.5358-5.8045-11.628-10.321-16.742-7.4924-2.5637 1.4181-4.0043 1.2881-4.0043-0.36135 0-1.4169 1.1834-2.5762 2.6297-2.5762s1.9278-1.1224 1.07-2.4943c-2.7336-4.3717-6.1828 0.06707-6.1828 7.9568 0 9.2132-2.3478 7.571-5-3.4972l-1.9411-8.101-0.2922 7.3629c-0.21047 5.3034-0.9093 6.3995-2.4983 3.9188-1.5799-2.4665-2.0978-1.6039-1.8243 3.0389 0.21 3.5656 1.8516 7.0413 3.6481 7.7237 2.3063 0.87603 2.8812-0.37782 1.9559-4.266-0.81084-3.4075-0.18904-2.856 1.6312 1.4467 1.7111 4.0446 3.3695 5.5847 3.9646 3.6814 0.56266-1.7996 2.1375-4.6647 3.4996-6.367zm28.047-14.699c-0.89576-3.7121-2.254-8.8204-3.0184-11.352-0.90169-2.9862-0.4243-4.0126 1.3595-2.923 1.512 0.92361 2.7492 0.57489 2.7492-0.77498s-1.037-3.0877-2.3044-3.8619c-4.0995-2.5042-5.5622 8.2192-2.3273 17.061 3.7504 10.251 5.8309 11.338 3.5414 1.8503zm-11.325 1.8407c0-1.3499-1.1174-2.4543-2.4831-2.4543s-2.4831 1.1044-2.4831 2.4543 1.1174 2.4543 2.4831 2.4543 2.4831-1.1044 2.4831-2.4543zm-9.7043-10.027c-1.5873-3.9245-2.4498-4.5429-2.5541-1.8312-0.20916 5.4404 3.0052 13.525 4.0939 10.297 0.47123-1.3973-0.22172-5.207-1.5399-8.466zm-17.61 2.2871c0-3.5337-3.7849-3.9516-6.7789-0.74834-2.4681 2.6406-2.1108 3.1974 1.8624 2.9016 2.7041-0.20134 4.9165-1.1703 4.9165-2.1532zm71.173-7.599c-0.68884-1.6873-1.2524-0.30678-1.2524 3.0679 0 3.3747 0.5636 4.7552 1.2524 3.0679 0.68886-1.6873 0.68886-4.4484 0-6.1358zm-75.81-1.8407c1.3462 0 1.6907-1.2104 0.76568-2.6898-1.1544-1.8462-2.8502-1.5352-5.4067 0.99164-2.3208 2.2938-2.934 4.9266-1.6268 6.9848 1.6499 2.598 2.2818 2.3863 2.959-0.99162 0.47363-2.3623 1.9625-4.295 3.3087-4.295zm126.31 1.0823c0-2.1045-1.1356-3.1326-2.5237-2.2847-1.388 0.84786-1.8808 2.5697-1.095 3.8263 2.1286 3.4042 3.6187 2.7694 3.6187-1.5416zm-144.9-8.9079c3.0288-0.6113 2.5647-2.168-2.3161-7.7691l-6.1039-7.0046-1.2538 8.2318c-0.68959 4.5275-0.27475 8.6 0.92183 9.0499 1.1966 0.44997 2.3278 2.6588 2.5138 4.9086 0.20834 2.52 0.74369 2.0282 1.3943-1.2808 0.58085-2.9542 2.7606-5.7153 4.8439-6.1357zm8.3226 7.9704c0-1.2702-1.1174-2.992-2.4831-3.8263-1.3658-0.83426-2.4832 0.205-2.4832 2.3094 0 2.1045 1.1174 3.8263 2.4832 3.8263 1.3657 0 2.4831-1.0392 2.4831-2.3094zm28.645-5.667c-0.95241-3.0372-2.2615-8.2832-2.909-11.658l-1.1774-6.1358 3.8053 6.1358c3.8005 6.1279 3.8034 6.1247 2.2494-2.4543-0.85579-4.7245-3.6243-15.084-6.1523-23.022-2.5279-7.9376-4.5962-15.88-4.5962-17.649 0-1.7693-1.1622-3.9268-2.5827-4.7945-1.6575-1.0125-2.1191 0.91383-1.2887 5.3773 0.94738 5.092 0.52862 4.6541-1.5633-1.6351-3.82-11.484-3.7324-11.441-9.5774-4.7796-4.0419 4.6062-4.7787 7.7687-3.5222 15.119 1.0296 6.0232 0.63796 9.2947-1.1126 9.2947-1.4858 0-2.831 1.9328-2.9895 4.295-0.26275 3.9175-0.38553 3.9294-1.3971 0.13604-1.3813-5.1796-8.2622-3.0163-8.2094 2.5808 0.03252 3.449 0.37333 3.5084 2.3556 0.41005 1.8926-2.9581 2.7675-2.508 4.7709 2.4543 1.5399 3.8142 2.5119 4.5753 2.6106 2.0442 0.08659-2.2179 1.9221-4.7018 4.0789-5.5198 3.2737-1.2417 3.6324-0.17019 2.1712 6.4867-0.96267 4.3857-2.8466 8.6643-4.1866 9.508-1.5386 0.96873-1.4237 2.1525 0.31197 3.2127 1.5115 0.92333 2.8268 0.23305 2.9228-1.5339 0.09598-1.767 1.2347-1.0039 2.5306 1.6959 1.827 3.8064 2.0646 3.0387 1.058-3.4192-0.71392-4.5803-0.09903-9.7558 1.3664-11.501 1.903-2.2664 1.8607-4.6576-0.148-8.3673-1.5468-2.8568-2.3127-7.069-1.7019-9.3605 0.77343-2.9017 1.198-2.4462 1.3986 1.5006 0.15843 3.1169 1.3567 5.0142 2.6627 4.2164 1.3061-0.79783 1.7736-3.348 1.0389-5.667-1.1862-3.744-0.92005-3.7154 2.3751 0.2551 3.5901 4.3258 3.7532 4.3258 5.0067 0 0.82141-2.8345 1.1275-2.2253 0.83605 1.6642-0.31369 4.187-1.8395 6.0275-4.804 5.7949-5.8657-0.46026-5.476 1.1957 1.8636 7.9187 6.6066 6.0517 8.1141 15.326 3.2695 20.115-1.6161 1.5974-2.1141 3.719-1.1066 4.7148 1.0075 0.99579 2.8714 0.18589 4.1419-1.7998 1.2705-1.9857 2.3272-2.8724 2.3481-1.9704 0.02091 0.902 0.78662 3.5682 1.7016 5.9248 1.1342 2.9213 0.73911 3.7201-1.2416 2.5102-1.5978-0.97604-2.9051-0.60501-2.9051 0.82452 0 1.4295 1.8064 2.5992 4.0143 2.5992 3.0207 0 3.5857-1.3669 2.2827-5.5222zm-7.5386-26.384c-0.93227-2.9032-1.1363-5.8307-0.45345-6.5057s2.0043 1.1482 2.9366 4.0514c0.93228 2.9032 1.1363 5.8307 0.45345 6.5057-0.68286 0.67494-2.0043-1.1482-2.9366-4.0514zm75.736 26.997c0-2.6997-1.1834-4.9086-2.6297-4.9086s-1.9391 1.1044-1.095 2.4543c0.84407 1.3499 0.491 2.4543-0.78462 2.4543-2.5379 0-6.2329-14.744-4.1989-16.754 0.69236-0.68431 1.2588 0.53136 1.2588 2.7015 0 5.6089 4.0407 7.3519 9.8813 4.2625 4.2479-2.247 5.0176-1.9102 5.0176 2.196 0 2.6676 1.1046 5.5249 2.4547 6.3496 1.4076 0.85984 1.8239-0.12532 0.97589-2.3094-0.81334-2.0949-0.24183-3.8089 1.27-3.8089 1.5119 0 2.7488 1.2885 2.7488 2.8634 0 1.5748 0.66075 2.2103 1.4683 1.4121 2.876-2.8426-1.6701-11.408-5.3201-10.023-4.9793 1.8885-4.8694-12.242 0.1271-16.341 3.1054-2.5473 3.7763-2.1891 4.0351 2.1538 0.50049 8.3992 0.81629 9.5999 3.0915 11.754 2.1747 2.0588 1.048-9.703-2.0377-21.271-1.0315-3.867-0.20903-3.0821 2.2243 2.1225 2.1235 4.542 3.9753 10.616 4.1151 13.499 0.15542 3.2042 1.0478 1.9027 2.2967-3.3496 2.6662-11.213 0.79007-19.719-6.2818-28.479l-5.7387-7.1086-1.7459 9.1851c-0.96023 5.0518-1.0994 10.85-0.30938 12.885 2.3794 6.1286-0.47649 4.1658-4.4368-3.0494-2.0375-3.7121-3.7494-5.3478-3.804-3.6347-0.066086 2.07-2.1409 2.6082-6.1864 1.6046-5.7562-1.4279-5.9264-1.1738-3.1337 4.6752 1.7608 3.6878 3.6255 5.11 4.6183 3.5223 0.91578-1.4645 2.8784 1.6566 4.3615 6.936 3.7256 13.263 3.4298 15.735-1.8829 15.735-3.3957 0-5.6561-3.388-8.5966-12.885-3.7234-12.026-3.9125-12.23-2.8351-3.0679l1.1544 9.8172-3.5589-7.3629-3.5589-7.3629 1.4561 8.3581c0.98434 5.6504 0.58992 7.829-1.2175 6.725-2.1576-1.318-3.3872-35.938-1.2766-35.943 0.30237-6.9e-4 1.6536 3.5882 3.0026 7.9752 2.1231 6.9042 2.2545 6.3623 0.97761-4.0309-0.97526-7.9377-0.61008-11.479 1.0774-10.448 1.7168 1.0487 1.8459-1.4487 0.3942-7.627-2.8618-12.18-2.7502-14.863 0.43328-10.413 2.3415 3.2724 2.5097 3.2724 1.5139 0-0.61612-2.0248-2.5201-3.3583-4.231-2.9633-2.0169 0.46558-2.6444-1.0448-1.7844-4.295 0.7295-2.7572 0.5116-5.0131-0.48421-5.0131-0.99582 0-1.7293 7.3627-1.6299 16.362 0.12196 11.042-0.82847 16.694-2.9232 17.385-1.7072 0.56267-3.2336 3.416-3.392 6.3407-0.22481 4.1505-0.5373 4.375-1.4237 1.0226-0.62456-2.3623-2.743-4.295-4.7076-4.295-2.7491 0-3.275-2.403-2.283-10.431 0.70891-5.7369 0.62897-9.0502-0.17761-7.3629-2.3022 4.8161-6.0189 3.59-6.0189-1.9856 0-2.7794 1.1174-4.3709 2.4831-3.5366 1.3657 0.83427 2.4831-0.75721 2.4831-3.5366 0-3.0253-1.6169-5.0535-4.0288-5.0535-3.328 0-3.4824-0.6507-0.8877-3.7408 3.9644-4.7213 1.2626-7.754-3.4582-3.8816-1.9629 1.6102-2.9957 5.3043-2.3278 8.3262 0.87536 3.9603 0.55362 4.5298-1.1875 2.102-1.8046-2.5162-2.8359-2.6139-4.2204-0.39974-1.0077 1.6116-0.58869 4.1593 0.93117 5.6615 3.3111 3.2726 3.7042 14.021 0.51274 14.021-1.2379 0-1.6416 2.3022-0.89706 5.116 1.0335 3.9062 1.8594 4.3415 3.4923 1.8407 1.6156-2.4742 2.5132-1.9246 3.6698 2.2468 0.8421 3.0372 3.112 5.5222 5.0442 5.5222s4.1538 1.6503 4.9369 3.6674 2.3696 3.0896 3.5256 2.3834c1.156-0.70614 3.386 3.4418 4.9556 9.2177 4.4589 16.408 7.136 21.949 9.8148 20.312 3.165-1.9334 3.2433 4.3987 0.092851 7.5126-1.4967 1.4794-1.5109 3.7105-0.038024 6.013 1.8439 2.8827 2.3915 2.3567 2.5758-2.4748l0.23406-6.1358 2.494 6.7493c2.8835 7.8033 9.5296 9.0871 9.5296 1.8407zm-23.016-39.072c-1.0801-4.0824-0.75693-5.0406 1.0857-3.2193 1.4429 1.4262 2.135 4.0418 1.5378 5.8124-0.6199 1.8382-1.7455 0.72562-2.6236-2.5931zm-20.133-26.062c-0.85159-2.1934-1.4523-5.8305-1.3349-8.0823 0.11741-2.2518 1.1979-0.83649 2.401 3.1452 2.3408 7.7464 1.5129 11.58-1.0661 4.9371zm-19.717 62.219c-0.79267-1.9579-1.3811-1.3763-1.5002 1.4828-0.10782 2.5872 0.47908 4.0368 1.3042 3.2213 0.82512-0.81557 0.91335-2.9324 0.19602-4.7041zm84.427-4.9086c-0.79267-1.9579-1.3811-1.3763-1.5002 1.4828-0.10782 2.5872 0.47907 4.0368 1.3042 3.2213 0.82512-0.81556 0.91335-2.9324 0.19602-4.7041zm229.01 2.2647c6.1167-3.0977 7.0893-5.5017 9.1705-22.666 1.9845-16.367 5.5528-24.718 10.562-24.718 3.293 0 4.283 1.4021 3.5274 4.9963-2.1911 10.422 10.396-8.0722 16.162-23.747 3.1225-8.4887 7.8765-19.527 10.564-24.529 2.688-5.0024 6.5977-17.151 8.6882-26.997 2.0905-9.8461 4.8791-18.27 6.1967-18.72 1.3177-0.44998 2.3958-1.8305 2.3958-3.0679 0-2.3702 8.6162-11.633 11.795-12.681 1.0243-0.33746 1.617-1.341 1.3172-2.23-0.29985-0.88902 2.1137-1.3279 5.3633-0.97533 7.8586 0.85262 10.621-5.3229 12.212-27.297 1.2597-17.406 1.1728-17.725-7.2566-26.558-4.6924-4.9176-8.5316-9.9668-8.5316-11.221 0-3.6662-3.6317-2.6462-9.3605 2.629-6.5742 6.0537-17.191 6.3287-23.685 0.61358-4.7979-4.2227-4.85-4.0935-3.0997 7.6767 0.97918 6.5844 2.4431 13.679 3.2532 15.765 1.0725 2.7625 0.36482 3.3735-2.6034 2.2477-6.3862-2.4221-7.6394 2.6221-4.1862 16.849 2.6048 10.732 2.5971 13.826-0.0418 16.969-2.6936 3.2079-2.5048 4.3659 1.1413 7.0011 4.0428 2.9218 3.7782 3.6486-3.5468 9.7405-7.18 5.9714-7.4166 6.5831-2.5468 6.5831 5.1015 0 5.3037 0.8245 4.0635 16.567-1.8655 23.679-1.8114 23.443-6.6425 28.838-2.4178 2.6997-4.7868 7.026-5.2646 9.6138-1.6119 8.731-7.0766 7.3562-7.0766-1.7803 0-7.0369-1.0794-8.7963-6.1718-10.06-4.4982-1.1159-6.0132-2.9859-5.5871-6.8962 0.50065-4.5938-1.2004-5.7352-11.831-7.9386-6.8286-1.4154-14.08-3.6303-16.114-4.922-3.5632-2.2629-28.64-4.2528-26.462-2.0998 0.58804 0.5812 9.444 3.0758 19.68 5.5436s20.692 5.7918 23.236 7.3869c4.1369 2.5937 3.9698 2.7555-1.5823 1.5322-3.4143-0.75232-14.868-3.2252-25.452-5.4954s-19.244-4.9059-19.244-5.8572c0-0.95126-2.5142-1.8304-5.5871-1.9536s-13.409-1.0896-22.969-2.1475l-17.382-1.9235 5.7656-5.6986c5.2169-5.1563 7.2256-5.5485 21.107-4.1214 8.4376 0.8675 22.894 1.9247 32.126 2.3494 9.3539 0.43031 18.634 2.2549 20.963 4.1214 2.8684 2.2994 3.5935 2.3876 2.3132 0.28133-1.0256-1.6873-1.1131-4.27-0.19436-5.7393 1.0176-1.6274 2.7974-0.43708 4.5544 3.0462 1.5862 3.1446 4.8114 6.0844 7.1672 6.5328 3.6712 0.69878 4.2831-1.2889 4.2831-13.912 0-12.963 0.77896-15.333 6.4997-19.781 3.5748-2.7793 7.5457-4.4143 8.8242-3.6334 2.4223 1.4797 19.394-8.8068 19.423-11.773 0.00934-0.93273-1.0898-2.3719-2.4424-3.1982-3.2094-1.9604-0.92398-71.9 2.5668-78.552 1.4168-2.6997 6.4262-7.3936 11.132-10.431 7.3426-4.739 11.879-5.5222 31.984-5.5222h23.428l-0.42417-16.567c-0.33049-12.908 0.32863-16.409 2.9844-15.853 2.2544 0.47222 2.8755-0.65907 1.8342-3.3411-1.1382-2.9316-0.53465-3.6607 2.1785-2.6317 2.6185 0.99312 3.8316-0.22253 4.0132-4.0218 0.1845-3.8584 1.2617-2.5844 3.6965 4.3721l3.4361 9.8172-1.4461-10.516c-1.4421-10.486 2.135-19.129 6.7502-16.31 3.0162 1.8425 2.7668-7.5539-0.48572-18.294-2.656-8.7706-2.827-8.8651-14.571-8.0462-24.681 1.7209-48.32-18.248-50.354-42.535-0.53829-6.4286-3.2835-8.2304-4.961-3.2561-0.53713 1.5927-2.7062 2.2399-4.8201 1.4381-3.1448-1.1927-6.3657-9.0809-8.0005-19.594-0.84609-5.4408-9.3777-11.412-15.627-10.937-7.695 0.58458-11.8 9.017-4.39 9.017 3.4614 0 3.6607 0.65521 1.1196 3.6814-4.8662 5.7953-24.666 4.6846-37.593-2.1088-19.816-10.414-23.143-12.526-31.423-19.952-6.6427-5.9572-8.59-6.6766-10.369-3.8307-1.6794 2.6857-3.211 1.3897-6.5594-5.5506-2.4027-4.9799-5.3047-9.0544-6.449-9.0544s-0.22723 2.7956 2.0379 6.2123c2.2651 3.4168 3.4074 6.915 2.5386 7.7737-0.86885 0.85875-8.7349 1.6526-17.48 1.7641-12.812 0.16335-15.527 0.86642-13.98 3.6192 1.0561 1.8791 1.3842 5.4421 0.72916 7.9178-0.97436 3.6827-2.0988 4.0212-6.1828 1.8608-3.109-1.6446-4.4065-1.7044-3.4399-0.15865 2.098 3.3552-6.234 17.327-10.885 18.254-2.9247 0.58242-2.5624 1.736 1.6868 5.3706l5.4115 4.6288-5.8032 4.5117c-9.8149 7.6307-29.339 4.4223-42.643-7.0076-4.9055-4.2144-5.0676-5.2354-1.9822-12.488 3.6872-8.6674 7.5745-9.7865 14.92-4.295 6.2872 4.7001 9.9991 4.7672 6.0884 0.10989-4.4144-5.2572-0.98007-16.021 7.6007-23.823 3.9993-3.636 7.2714-7.3118 7.2714-8.1684 0-0.85661-4.1163-1.195-9.1474-0.75196-9.6386 0.84877-20.65 9.2776-20.65 15.807 0 2.0535-2.7935 7.3536-6.2079 11.778-3.4143 4.4244-6.2079 9.308-6.2079 10.853 0 4.2044-8.0177 12.638-12.347 12.988-2.0865 0.16841 2.3236 1.1824 9.8003 2.2533 8.8785 1.2717 14.995 3.6572 17.633 6.8769 2.2213 2.7114 8.3956 5.7045 13.721 6.6514 11.586 2.0602 19.367 5.6507 13.407 6.1863-2.0486 0.18409-7.077 0.23669-11.174 0.11692-6.3946-0.18694-6.7462 0.09935-2.4832 2.0217 2.7315 1.2317 7.6 2.3172 10.819 2.412 4.183 0.1233 5.4227 1.2228 4.3455 3.854-0.829 2.0248-2.2558 5.5193-3.1708 7.7655-1.2473 3.0621-0.78123 3.5707 1.8624 2.0324 2.1512-1.2518 1.8317-0.13727-0.81959 2.8585-4.7413 5.3574-5.8188 9.3948-1.8624 6.978 1.3657-0.83425 2.4832 0.03623 2.4832 1.9344 0 1.8982-2.5142 4.6497-5.5871 6.1145l-5.5871 2.6633 6.2079 0.25305 6.2079 0.25308-6.2079 3.5075-6.2079 3.5075 6.2068 0.08695c5.8664 0.08223 5.6109 0.62534-4.6593 9.9042-5.9764 5.3994-12.122 9.8341-13.656 9.8548-1.6938 0.02283-1.5046 0.84324 0.48141 2.0879 2.3869 1.4959 1.2912 2.8611-4.052 5.0486-6.6653 2.7288-7.312 4.03-7.1962 14.479 0.074299 6.7015-0.9954 11.48-2.5698 11.48-5.7027 0-6.1057 3.6905-0.42082 3.854 5.5722 0.16017 5.6462 0.3232 1.0347 2.2818-4.7647 2.0237-4.7426 2.1163 0.54287 2.2818 3.8905 0.12184 5.0808 1.2757 4.0514 3.9271-0.95972 2.472-3.16 3.2206-6.4409 2.1914-3.0965-0.97139-4.3895-0.61385-3.4152 0.94439 0.8624 1.3792 0.16429 3.1664-1.5514 3.9716-1.7157 0.80519-0.60634 1.0032 2.4652 0.44003 3.0715-0.56318 6.1241-0.16114 6.7835 0.89339 0.65941 1.0545-3.1901 2.611-8.5544 3.4588-10.136 1.602-22.306-2.083-22.605-6.8445-0.60877-9.7134-2.6825-19.8-4.5401-22.083-1.1992-1.4737-2.9673-7.3952-3.9292-13.159-0.9619-5.7637-3.4029-12.114-5.4244-14.112s-2.7576-3.672-1.6358-3.7198c4.4746-0.19078-10.744-7.1079-15.817-7.189-7.8878-0.12607-9.0299 3.6675-2.0505 6.8107 7.0974 3.1962 14.294 15.711 12.174 21.171-0.81932 2.1103-0.25972 3.8369 1.2436 3.8369 3.506 0 2.2732 8.1691-2.0009 13.259-4.8672 5.7964-7.6403 4.7816-7.7294-2.8285-0.076532-6.541-0.19297-6.5978-3.7719-1.8407-7.5767 10.071-11.075 13.499-13.776 13.499-4.6414 0-0.045091-12.524 7.8635-21.427 7.4221-8.3552 8.4929-10.917 5.7122-13.665-2.8583-2.8251-10.12 2.8867-13.292 10.455-1.7187 4.1012-4.5112 7.4567-6.2056 7.4567-4.4053 0-8.8544 24.328-6.3203 34.56 1.1428 4.6144 4.9785 15.502 8.5238 24.195 3.5453 8.6926 6.446 16.846 6.446 18.119 0 3.836 10.623 11.709 14.742 10.925 2.114-0.40241 4.5581-4.0315 5.4314-8.0646 1.4091-6.5079 1.6207-6.1431 1.8815 3.2427 0.16158 5.8166 1.2161 10.012 2.3433 9.3236 1.1273-0.68858 4.0393 5.3134 6.4713 13.338 2.4319 8.0244 5.3878 14 6.5686 13.278 1.1808-0.72128 2.7945 1.7709 3.586 5.5382 0.79146 3.7674 2.4779 10.163 3.7478 14.213 2.2365 7.1324 2.2822 7.1516 1.4613 0.61358-0.46611-3.7121 0.11497-6.7493 1.2913-6.7493 1.1763 0 2.1388 2.2089 2.1388 4.9086s1.3446 4.6325 2.988 4.295c2.9307-0.60182 3.2805 0.49192 4.1213 12.885 0.32554 4.7989 0.91958 5.3491 2.7263 2.5254 3.0319-4.7385 5.1285-2.3857 6.3459 7.1213 0.54366 4.2459 3.271 10.588 6.0608 14.093 2.7898 3.5054 5.0723 8.4986 5.0723 11.096 0 2.5973 1.1127 4.0428 2.4726 3.2121s3.7885 1.3443 5.397 4.8334c1.7131 3.7161 3.609 5.249 4.5771 3.7008 2.3422-3.7458 23.667 17.669 30.118 30.246 5.3037 10.34 19.481 28.103 19.552 24.497 0.0209-1.0594 0.85896-0.6997 1.8624 0.79929 3.026 4.5206 17.262 10.77 24.67 10.829 3.8236 0.03083 14.774 2.14 24.334 4.687 20.804 5.5427 30.252 6.0291 38.267 1.97zm-43.451-7.0611c-0.73734-1.1792 0.32259-3.7879 2.3554-5.7971 5.06-5.0012 16.005-8.8802 17.647-6.2542 2.3149 3.7021-1.6398 10.289-5.3358 8.8869-1.9433-0.73705-2.9295-0.3746-2.1916 0.80545 0.73786 1.18-1.4656 2.6759-4.8966 3.3242-3.431 0.64826-6.8415 0.21387-7.5788-0.96533zm25.642-56.205c-6.5026-2.6095-15.348-5.3584-19.656-6.1086-10.427-1.8156-11.976-2.9777-11.976-8.984 0-2.7992-2.414-7.1588-5.3644-9.6879-7.1181-6.1018-4.3671-8.3141 4.6241-3.7186 3.9439 2.0157 15.056 4.745 24.693 6.065s20.977 4.1659 25.2 6.3242c4.8098 2.4584 8.2488 3.0107 9.2067 1.4788 0.84096-1.3449 3.4186-2.4402 5.728-2.4339 3.1114 0.00842 2.1327 1.9255-3.7784 7.4015-4.781 4.429-7.4106 8.8498-6.563 11.033 1.987 5.1178-7.3968 4.5367-22.114-1.3694zm-110.44-29.961c-0.09485-1.6873-1.0142-6.829-2.043-11.426-1.359-6.0722-1.0855-7.8785 1.0002-6.6045 3.4376 2.0998 3.8427-1.4903 0.54098-4.7946-2.7019-2.704 1.4607-25.508 5.3537-29.329 1.676-1.645 1.9658-0.70145 0.87894 2.8613-0.89193 2.9236-0.45472 6.0285 0.97158 6.8997 1.4485 0.8848 1.8813 4.388 0.98044 7.9355-1.047 4.123-0.70588 5.7974 0.97226 4.7723 1.4218-0.86854 3.2121 0.0358 3.9784 2.0096 0.76632 1.9738 0.46904 4.1534-0.66064 4.8434-1.1297 0.69006-2.7439 4.6641-3.5871 8.8313-0.85274 4.214-2.6481 6.8955-4.0455 6.042-1.3817-0.84406-2.5123-0.36507-2.5123 1.0645 0 1.4295 1.1174 2.5992 2.4831 2.5992s2.4831 1.6567 2.4831 3.6814c0 4.4191-6.547 5.0104-6.7942 0.61357zm61.423-4.295c-3.1831-2.0332-3.0929-2.3846 0.62079-2.4167 2.39-0.02067 4.3455 1.0668 4.3455 2.4167 0 2.9933-0.28007 2.9933-4.9663 0zm59.595-35.587c0-2.0248 1.1174-3.6814 2.4831-3.6814s2.4831 1.6566 2.4831 3.6814-1.1174 3.6815-2.4831 3.6815-2.4831-1.6567-2.4831-3.6815zm-137.74-1.1039c-0.914-1.4617-2.702-2.0222-3.9734-1.2456-1.3188 0.80556-2.4854-5.2385-2.7163-14.072l-0.40473-15.484-1.6737 13.499c-0.92051 7.4243-1.8558 10.553-2.0784 6.9538s-1.8015-7.1019-3.5087-7.7827c-2.4831-0.99034-2.4831-1.2766 0-1.4317 1.7072-0.10657 3.1039-1.1755 3.1039-2.3754s-1.9549-2.0282-4.3443-1.8407c-2.7088 0.21253-4.634-1.667-5.114-4.9926-0.42332-2.9334-3.3364-7.9034-6.4735-11.044-5.1761-5.1824-9.2734-14.532-12.182-27.8-0.59193-2.6997-0.68582 0.61357-0.20868 7.3629 0.74994 10.608 0.49767 11.44-1.8603 6.1358-3.7976-8.5418-5.7899-61.657-2.0944-55.835 1.4995 2.3622 4.347 4.295 6.3277 4.295 2.0212 0 3.6873 2.4229 3.7974 5.5222 0.10782 3.0372 0.75964 4.1416 1.4485 2.4543s2.2417-3.0679 3.4508-3.0679c1.209 0 1.6238 1.4797 0.92164 3.2882s0.45032 4.7048 2.5611 6.4362c2.392 1.9621 3.8377 7.1953 3.8377 13.892 0 5.9091 1.1387 10.744 2.5304 10.744 1.4592 0 1.8708-2.5975 0.97237-6.1358-0.96-3.7806-0.50162-6.1357 1.1943-6.1357 1.5138 0 2.473 1.3304 2.1316 2.9563-0.34144 1.626 0.57644 3.0065 2.0397 3.0679 8.1345 0.34108 10.767 8.4721 13.221 40.841 2.457 32.398 2.3268 36.966-0.90608 31.796zm-11.251-29.575c0-1.3499-1.1174-2.4543-2.4832-2.4543-1.3657 0-2.4831 1.1044-2.4831 2.4543s1.1174 2.4543 2.4831 2.4543 2.4832-1.1044 2.4832-2.4543zm-2.4832-15.953c0-4.7245-0.89303-8.59-1.9845-8.59-1.0915 0-1.5279 3.8655-0.96989 8.59 0.55804 4.7245 1.4511 8.59 1.9845 8.59 0.53343 0 0.96988-3.8655 0.96988-8.59zm86.583 23.285c7.3317-6.6941 14.267-11.599 15.411-10.9 3.3659 2.0561-0.21484 8.1553-5.8202 9.9137-2.8468 0.89306-8.0399 4.2484-11.54 7.4563-3.5003 3.2079-7.4929 5.803-8.8726 5.7668-1.3797-0.03618 3.4901-5.5428 10.822-12.237zm49.135-2.8504l-6.5365-5.7086 4.8158-10.431c2.6487-5.7369 5.9219-10.431 7.2738-10.431 3.8609 0 5.8916 4.8223 3.4042 8.084-3.7518 4.9197-3.3456 14.609 0.55046 13.132 1.8755-0.71136 7.2674-2.0086 11.982-2.8828 7.1189-1.32 9.2357-0.65262 12.488 3.9375 5.5161 7.7838 2.9548 9.9278-6.9658 5.8309-8.2132-3.3918-15.855-2.5978-18.971 1.9713-0.82755 1.2134-4.4461-0.36273-8.0411-3.5024zm-110.53-13.685c-0.19381-7.0868 0.48568-12.848 1.51-12.803 3.8654 0.16947 13.036 9.4533 13.036 13.197 0 6.4127-9.8716 4.8573-10.285-1.6206-0.19378-3.0372-1.1526-1.1044-2.1308 4.295l-1.7784 9.8172-0.35236-12.885zm-5.5099 7.3629c-0.10516-1.0124-0.70216-6.8107-1.3266-12.885-0.62448-6.0744-1.6208-12.425-2.214-14.112-0.59322-1.6873 0.003781-3.0679 1.3266-3.0679 1.3229 0 2.4513 0.82834 2.5076 1.8407 0.056266 1.0124 0.72036 8.1912 1.4757 15.953 0.75537 7.7617 0.70933 14.112-0.10233 14.112-0.81164 0-1.5618-0.82833-1.667-1.8407zm141.81-16.475c-4.0118-4.7777 5.7985-16.128 10.189-11.788 2.0632 2.0392 1.4871 4.3924-2.2137 9.0425-4.2519 5.3426-5.4488 5.7546-7.9754 2.7456zm65.727-13.054c-6.6343-1.3525-9.5306-4.3474-9.9755-10.315-0.32723-4.3902 1.1304-4.9469 12.952-4.9469 9.4464 0 13.729 1.0523 14.725 3.6184 2.5292 6.5145-8.2097 13.578-17.701 11.643zm-265.31-29.374c-0.82346-7.7617-0.59513-17.978 0.50741-22.702 1.5409-6.603 2.0726-3.3385 2.2985 14.112 0.16165 12.486-0.066674 22.702-0.50741 22.702-0.4407 0-1.475-6.3505-2.2985-14.112zm194.36 5.057c-2.3151-6.0185-1.5141-7.5884 9.0794-17.794 6.3902-6.156 10.661-9.5361 9.4912-7.5113-1.17 2.0248-1.8056 5.6142-1.4124 7.9765 0.39318 2.3623-0.51208 4.295-2.0117 4.295-1.8898 0-1.9671 1.4026-0.25209 4.5699 1.9317 3.5676 1.2349 5.7209-3.1766 9.8172-7.2946 6.7733-8.652 6.6165-11.718-1.3536zm-225.53-2.8613c-2.8721-3.9866-5.222-9.7797-5.222-12.873 0-5.4227 11.415-24.296 14.694-24.296 0.88181 0 3.1062 5.031 4.9432 11.18 1.8369 6.149 4.8744 12.697 6.75 14.55 4.5585 4.5056 4.3522 9.5317-0.31461 7.6651-2.0486-0.81937-5.1679-2.0717-6.9317-2.7831-2.1605-0.87132-3.1734 0.85248-3.1039 5.2826 0.14494 9.2446-4.665 9.8114-10.815 1.2744zm167.47-16.731c-0.93449-3.6801-4.4154-9.1792-7.7354-12.22-3.32-3.0411-6.0363-6.6518-6.0363-8.0237s-1.6761-1.8587-3.7247-1.0818c-2.0486 0.777-3.7247 3.5034-3.7247 6.0587 0 4.8758-6.0574 6.4034-8.691 2.1917-0.84407-1.3499-3.1448-2.4543-5.1128-2.4543s-5.6156-2.0137-8.1057-4.4749c-4.0517-4.0046-4.1467-5.0418-0.90401-9.8688 3.2106-4.7792 3.1606-5.8995-0.43877-9.8306-2.2343-2.4402-4.0623-6.3916-4.0623-8.7811 0-5.311 6.9416-20.707 11.975-26.561 2.0313-2.3623 2.5803-4.295 1.2199-4.295-3.377 0-15.678 22.773-15.678 29.025 0 5.58-4.7786 9.9814-5.2832 4.8662-1.0758-10.906-1.6049-13.828-2.8704-15.852-0.77803-1.2443 0.64776-6.6405 3.1685-11.992 2.5207-5.3511 4.6736-8.2836 4.7841-6.5166 0.11055 1.767 1.3639 2.5023 2.7852 1.6342 1.4213-0.86821 2.0055-3.4184 1.2983-5.667-0.70724-2.2486-0.1208-5.7451 1.3032-7.7699 1.9876-2.8262 2.201-2.3271 0.91883 2.1481-1.1361 3.9651-0.791 5.2924 1.0789 4.1502 1.512-0.92363 2.7492-3.2708 2.7492-5.216s1.2086-3.5366 2.6857-3.5366c2.3787 0-5.0297 14.588-10.532 20.739-1.1472 1.2824-2.0858 3.9923-2.0858 6.022s3.8824-2.3328 8.6274-9.6945c4.8418-7.5118 8.6554-11.5 8.691-9.0899 0.03497 2.3623 1.1459 4.295 2.4688 4.295 1.3228 0 1.6917 1.8378 0.81958 4.0841-1.1587 2.9846-0.68989 3.5369 1.7415 2.0517 2.3607-1.442 2.9106-0.95967 1.8933 1.6607-3.0016 7.7311 1.59 9.6848 13.181 5.6088 15.933-5.6028 40.231-3.6674 48.326 3.8494 3.3702 3.1294 6.1276 6.8842 6.1276 8.3442s3.0729 4.0437 6.8286 5.7415c3.7558 1.6979 11.673 7.4897 17.595 12.871 5.9213 5.381 12.247 9.7836 14.057 9.7836 3.7271 0 15.45-12.98 19.336-21.409 3.6848-7.9932 7.1954-6.9343 3.848 1.1606-3.8991 9.4292-21.461 25.157-28.091 25.157-3.0349 0-9.0045 1.2013-13.266 2.6696-6.1553 2.1208-9.3725 1.8686-15.651-1.2272-9.6572-4.7617-9.6231-4.7609-9.6231-0.21527 0 2.0248 2.3466 6.0008 5.2146 8.8355 2.9443 2.91 4.277 6.0807 3.0611 7.2825-3.7352 3.6918-12.76-0.38534-14.303-6.4618-0.81468-3.2082-3.8094-7.0646-6.655-8.5698-4.2517-2.249-6.0338-1.8242-10 2.3835-2.6544 2.8161-5.9001 5.1202-7.2127 5.1202-1.3125 0-2.3864 1.1044-2.3864 2.4543s3.8196 2.4543 8.4879 2.4543c10.37 0 16.785 2.2177 14.941 5.1658-0.75562 1.2084-0.19051 2.1972 1.2558 2.1972 1.4463 0 2.6297 1.4913 2.6297 3.3141 0 2.358-4.2155 3.4391-14.613 3.7474-13.988 0.41487-14.686 0.14734-16.312-6.2576zm24.388-40.103c-15.163-15.066-26.927-17.433-48.287-9.7159-7.3656 2.6609-13.687 4.8381-14.048 4.8381-0.36073 0-0.65586 2.2089-0.65586 4.9086 0 2.727 1.6554 4.9086 3.7247 4.9086 2.0486 0 3.7247 1.1044 3.7247 2.4543 0 4.1153 5.1727 2.7433 9.5346-2.5289 2.2675-2.7408 8.5924-5.6854 14.055-6.5436 9.0616-1.4235 9.6337-1.2018 6.5246 2.529-3.0403 3.6481-2.6384 4.0933 3.7247 4.1266 3.923 0.02049 12.161 1.6033 18.307 3.5172 16.673 5.1924 16.814 4.8384 3.3956-8.4939zm-33.193 7.3937c2.0486-1.3085 2.6073-2.3791 1.2416-2.3791s-4.1593 1.0706-6.2078 2.3791-2.6073 2.3791-1.2416 2.3791 4.1593-1.0706 6.2079-2.3791zm-22.404-39.882c0.12054-4.0177-2.4962-1.444-6.2383 6.1358l-3.938 7.9765 5.0605-6.1357c2.7833-3.3747 5.0854-6.9641 5.1158-7.9765zm86.344 65.021c-2.39-0.52544-4.3455-1.9788-4.3455-3.2297 0-3.1351 6.7837-2.8703 8.7931 0.34323 2.0942 3.3491 0.97134 4.0778-4.4476 2.8864zm44.697-9.3615c-1.0243-1.0281-1.8624-4.6671-1.8624-8.0868 0-4.4686 0.75763-5.4687 2.6934-3.5554 1.4814 1.4642 2.3194 5.1032 1.8624 8.0868-0.45705 2.9836-1.6691 4.5835-2.6934 3.5555zm21.701-39.843c-5.4776-2.2868-21.121-11.416-34.764-20.287-35.236-22.912-42.378-26.958-50.007-28.325-13.329-2.3888-34.522-2.513-41.348-0.24207-9.3884 3.1232-11.729 0.16467-2.7008-3.4137 15.472-6.1323 45.951-2.6672 64.285 7.3084 15.615 8.4963 26.889 15.718 32.281 20.679 7.6307 7.0205 33.605 21.607 44.697 25.1 7.688 2.4212 8.5297 3.1519 3.7247 3.2336-3.4143 0.05804-10.69-1.7655-16.167-4.0524zm12.443-10.178c-11.804-2.9098-37.041-15.25-40.972-20.034-0.68286-0.83106-5.7112-3.8798-11.174-6.775-12.553-6.653-18.757-10.534-23.042-14.416-1.8624-1.6873-5.4752-3.0679-8.0285-3.0679s-5.2847-1.0272-6.0697-2.2825c-0.78496-1.2554-7.8348-2.9809-15.666-3.8344-7.8314-0.85354-17.591-2.2592-21.688-3.1238-6.7505-1.4244-6.2845-1.7189 4.9663-3.1383 18.345-2.3144 33.767 3.4189 73.253 27.234 8.8772 5.354 20.051 11.657 24.831 14.006 4.7801 2.3495 9.2497 4.9903 9.9326 5.8685 0.68288 0.87817 7.6667 3.4415 15.52 5.6963 19.436 5.5807 17.914 8.7418-1.8624 3.8668zm-173.66-37.649c0.93249-2.4205 2.321-3.7826 3.0855-3.027 0.76453 0.75562 0.00159 2.736-1.6954 4.4009-2.4524 2.4058-2.7376 2.124-1.3901-1.3739zm39.777-33.311c-1.0697-1.7107-1.2743-3.7731-0.45464-4.5832 2.2223-2.1965 4.6454 1.034 3.4451 4.5931-0.8411 2.494-1.426 2.4921-2.9904-0.00988zm13.451-7.6923c0-1.3499 1.1174-2.4543 2.4832-2.4543 1.3657 0 2.4831 1.1044 2.4831 2.4543s-1.1174 2.4543-2.4831 2.4543-2.4832-1.1044-2.4832-2.4543zm-2.4831-16.098c0-2.1045 1.1174-3.1437 2.4831-2.3094 1.3657 0.83427 2.4832 2.5561 2.4832 3.8263s-1.1174 2.3094-2.4832 2.3094-2.4831-1.7218-2.4831-3.8263zm-251.57 380.01c-3.4981-11.71-8.2418-17.734-5.6868-7.2223 1.1087 4.5618 0.8017 6.4121-0.89227 5.3773-1.4205-0.8677-2.5827 0.27942-2.5827 2.5492 0 3.2375 0.74104 3.5189 3.4388 1.306 2.7491-2.2551 3.7693-1.5189 5.0871 3.6705 0.90662 3.5702 2.1041 6.0408 2.6612 5.4903 0.55704-0.55057-0.35434-5.5775-2.0253-11.171zm50.685 2.4818c-2.3853-4.0511-2.5891-3.9955-2.6589 0.72562-0.083901 5.6814 3.0672 10.111 4.394 6.1771 0.46657-1.3834-0.31423-4.4896-1.7351-6.9027zm11.378 1.2881c-0.79267-1.9579-1.3811-1.3763-1.5002 1.4828-0.10781 2.5872 0.47907 4.0368 1.3042 3.2213 0.82512-0.81556 0.91335-2.9324 0.19602-4.7041zm-92.716-0.87281c-0.80873-2.083-2.003-3.2609-2.6539-2.6176-0.65091 0.64334-0.44692 2.3476 0.45329 3.7873 2.4485 3.9157 3.8796 3.155 2.2006-1.1697zm55.262-2.5939c-0.88373-2.2762-2.1655-3.5864-2.8484-2.9114-0.68286 0.67492-0.51851 3.0895 0.36522 5.3657 0.88372 2.2762 2.1655 3.5864 2.8484 2.9114s0.51851-3.0895-0.36522-5.3657zm-86.704-1.4419c-0.79268-1.9579-1.3811-1.3763-1.5002 1.4828-0.1078 2.5872 0.47909 4.0368 1.3042 3.2213 0.82514-0.81556 0.91335-2.9324 0.19603-4.7041zm50.331-9.5474c1.349 2.1574 2.3126 1.55 3.2677-2.0598 0.745-2.8157 0.34132-4.5005-0.89705-3.7441-1.2384 0.75646-2.3398-0.07034-2.4476-1.8373-0.15194-2.4902-0.47888-2.5193-1.4537-0.12956-1.8578 4.5545-5.7939 1.1369-5.8377-5.0687-0.020903-2.9575-1.2061-7.034-2.6338-9.0588-3.1358-4.4473-1.0177 8.8213 3.4964 21.903 2.5782 7.4715 2.994 7.7679 3.7463 2.67 0.57023-3.8641 1.4703-4.7365 2.7594-2.6748zm96.962 2.6447c0-1.3499-1.1174-2.4543-2.4831-2.4543s-2.4831 1.1044-2.4831 2.4543 1.1174 2.4543 2.4831 2.4543 2.4831-1.1044 2.4831-2.4543zm-142.09-17.114c-2.2464-8.7471-3.1399-9.9072-4.665-6.0566-1.0375 2.6196-1.8864 7.5241-1.8864 10.899 0 5.3558 0.24044 5.5284 1.8914 1.3586 1.7594-4.4436 2.0004-4.3654 3.4517 1.12 0.85815 3.2434 2.1062 5.3575 2.7735 4.698 0.66729-0.65953-0.03707-6.068-1.5653-12.019zm6.3554-0.80888c-0.81945-4.9911-2.3423-9.0748-3.3841-9.0748s-0.74951 4.4574 0.64956 9.9053c3.1063 12.096 4.7737 11.589 2.7346-0.83058zm108.88-8.0816c-0.43097-1.2212-2.3865-1.8958-4.3455-1.4992-1.9899 0.40287-3.5619-1.1316-3.5619-3.4769 0-2.309-0.66075-3.545-1.4683-2.7468-2.9188 2.885 1.7146 11.168 5.9071 10.56 2.3387-0.33926 3.8996-1.616 3.4686-2.8372zm-30.023-16.551c-2.6615-5.0206-2.7618-4.9474-1.881 1.3716 0.51172 3.6713-0.025578 6.0911-1.194 5.3773-1.1684-0.71374-2.1244-3.4414-2.1244-6.0615s-1.0824-4.7637-2.4052-4.7637c-2.4179 0-1.9173 2.5322 3.1163 15.762l2.7287 7.1718 2.2856-6.777c1.5181-4.5015 1.3415-8.5577-0.52589-12.08zm138.37 9.412c-1.5583-3.3804-3.1661-5.8171-3.573-5.415-1.5108 1.4933 2.2041 11.561 4.266 11.561 1.1772 0 0.86532-2.7658-0.69297-6.1461zm-218.25-5.0135c1.0666 0.65155 0.75589-3.1976-0.69052-8.5536-1.4464-5.3561-3.4583-9.7383-4.4708-9.7383-1.0126 0-0.63055 3.4319 0.84886 7.6265 1.9962 5.6598 1.9412 8.0837-0.21328 9.3998-1.7752 1.0844-2.1555 3.6043-0.97908 6.4858 1.787 4.3766 1.9825 4.3163 2.7448-0.84619 0.45141-3.0572 1.6935-5.0255 2.7601-4.3739zm13.846 1.3425c0.84407-1.3499 0.35132-2.4543-1.095-2.4543-1.4463 0-2.6297 1.1044-2.6297 2.4543s0.49276 2.4543 1.095 2.4543 1.7856-1.1044 2.6297-2.4543zm85.668-3.982c0-3.2613-0.67415-3.429-3.7247-0.92665-2.0486 1.6804-3.7247 3.4723-3.7247 3.982 0 0.50967 1.6761 0.92665 3.7247 0.92665s3.7247-1.7919 3.7247-3.982zm-104.38-2.7674c-0.04842-1.0124-1.8017-4.6018-3.8962-7.9765-2.0945-3.3746-3.1724-4.1127-2.3952-1.64s1.4131 6.0621 1.4131 7.9765 1.1174 3.4807 2.4831 3.4807 2.4435-0.82832 2.3952-1.8407zm47.268-4.7859c0-4.558-0.80059-5.8353-2.5645-4.0918-1.4105 1.3941-1.8497 4.3761-0.9759 6.6266 2.3001 5.9244 3.5404 5.0364 3.5404-2.5348zm30.16-8.4047c-5.1653-1.9369-5.8163-1.3516-3.9225 3.5263 1.2003 3.0918 2.2107 3.2963 4.7665 0.96486 2.6487-2.4162 2.494-3.2395-0.84403-4.4912zm34.401-3.376c0-2.0248-1.1174-3.6814-2.4831-3.6814s-2.4831 1.6566-2.4831 3.6814 1.1174 3.6814 2.4831 3.6814 2.4831-1.6566 2.4831-3.6814zm-116.71-1.2271c0-1.3499-1.1834-2.4543-2.6297-2.4543s-1.9391 1.1044-1.095 2.4543 2.0274 2.4543 2.6297 2.4543c0.60227 0 1.095-1.1044 1.095-2.4543zm32.545-12.386c-2.2818-5.6481-2.4421-5.4764-2.5897 2.7738-0.086586 4.837 0.68066 9.6357 1.705 10.664 2.9346 2.9454 3.5749-6.7786 0.88479-13.438zm79.159 4.41c0.020911-1.0124-1.0794-1.8407-2.4451-1.8407s-2.466 2.485-2.4451 5.5222c0.030764 4.4655 0.49866 4.8177 2.4451 1.8407 1.3239-2.0248 2.4242-4.5098 2.4451-5.5222zm-84.389 1.9177c0-2.2804-1.4447-3.0565-3.9329-2.1127-3.1666 1.201-3.2875 1.896-0.62079 3.5668 4.4104 2.7632 4.5537 2.7175 4.5537-1.4541zm9.5482-10.754c-1.6234-6.9514-3.9703-12.639-5.2153-12.639s-1.6751 1.3805-0.95589 3.0679c0.71924 1.6873 2.6319 7.804 4.2504 13.593 4.0653 14.54 5.5363 11.46 1.9208-4.0216zm20.171-1.4501c-0.043427-1.4293-1.7196-0.45492-3.7247 2.1653-2.3598 3.0836-3.6458 3.5886-3.6458 1.4317 0-1.8328-0.585-2.7542-1.3-2.0475-0.715 0.70669-0.53529 3.2546 0.39937 5.662 1.6214 4.1762 1.852 4.1708 5.0247-0.11781 1.8289-2.4722 3.2898-5.6643 3.2464-7.0937zm103.09-15.754c-4.9112-19.144-6.7542-29.494-8.4743-47.588-0.096256-1.0124-4.6096-1.8407-10.03-1.8407-7.7395 0-9.5479 0.79016-8.4254 3.6814 0.78613 2.0248 0.4717 3.6984-0.69871 3.719-1.1704 0.02066-3.7987 1.0815-5.8406 2.3574-3.1951 1.9964-3.0464 2.8013 1.0667 5.7739 4.5409 3.2818 4.3236 3.6678-4.3576 7.7395-5.0253 2.3569-9.1369 4.6931-9.1369 5.1915 0 0.49836 5.3618 3.5916 11.915 6.8739 12.486 6.2536 34.267 26.512 36.75 34.182 0.79792 2.464 1.8247 4.1104 2.2817 3.6586 0.45705-0.45172-1.8158-11.139-5.0508-23.748zm-30.998-37.158c0-1.3499 1.1174-2.4543 2.4831-2.4543s2.4831 1.1044 2.4831 2.4543-1.1174 2.4543-2.4831 2.4543-2.4831-1.1044-2.4831-2.4543zm261.32 44.791c0.99972-11.026 0.54811-12.885-3.1294-12.885-2.3638 0-5.6888-1.6567-7.389-3.6815-4.9849-5.9366-6.8629-4.3427-7.9521 6.7493-0.89038 9.0673-0.03183 11.398 6.5678 17.833 4.1756 4.0712 8.2991 6.8323 9.1632 6.1358 0.86409-0.69658 2.0968-7.0648 2.7394-14.152zm-350.46-0.76663c-2.2945-5.677-2.4261-5.7108-2.5755-0.66125-0.086586 2.9268 0.64766 7.3445 1.6316 9.8172 1.4718 3.6986 1.9285 3.8158 2.5755 0.66127 0.43259-2.109-0.30163-6.5267-1.6316-9.8172zm-22.598 6.144c0-2.1045-1.1356-3.1326-2.5236-2.2847-1.388 0.84786-1.8808 2.5697-1.095 3.8263 2.1286 3.4042 3.6187 2.7694 3.6187-1.5416zm-8.2363-3.9968c-0.79267-1.9579-1.3811-1.3763-1.5002 1.4828-0.10783 2.5872 0.47907 4.0368 1.3042 3.2213 0.82512-0.81557 0.91335-2.9324 0.19602-4.7041zm15.724 2.3009c0.02536-2.0452 0.8404-1.8407 2.4451 0.61358 1.6669 2.5494 2.4188 2.7193 2.4451 0.55284 0.020911-1.7207-2.8282-4.2057-6.3315-5.5222-8.6836-3.2632-9.0224-3.1074-5.4699 2.5151 3.5018 5.5421 6.8543 6.435 6.9112 1.8407zm376.64-15.906c-0.62958-2.388-1.1861-1.0284-1.2367 3.0212s0.4645 6.0034 1.1447 4.3417c0.68019-1.6616 0.72158-4.9749 0.09201-7.3629zm-227.69-17.84c0-1.3499-1.1834-2.4543-2.6297-2.4543s-1.9391 1.1044-1.095 2.4543c0.84407 1.3499 2.0274 2.4543 2.6297 2.4543 0.60226 0 1.095-1.1044 1.095-2.4543zm-13.178-9.1569c-0.62957-2.388-1.1861-1.0284-1.2367 3.0212-0.050603 4.0496 0.4645 6.0034 1.1447 4.3417 0.68019-1.6616 0.72158-4.9749 0.091998-7.3629zm267.68-64.444c0.86994-1.3912-0.12679-1.8027-2.3366-0.96456-4.3018 1.6316-5.0889 3.3908-1.5171 3.3908 1.2851 0 3.0193-1.0918 3.8537-2.4262zm44.093-6.6626c-1.7072-0.62557-3.1039-3.6794-3.1039-6.7864 0-3.3666-2.593-7.3283-6.4178-9.8052-5.9814-3.8737-6.7275-3.8793-10.972-0.08259-4.4133 3.9476-4.4068 4.2195 0.20998 8.7826 2.6203 2.5899 4.7643 6.4012 4.7643 8.4694 0 5.8077 10.397 8.8024 14.899 4.2915 2.8293-2.8348 2.9785-4.0054 0.62077-4.8694zm-26.443-6.9862c-2.5891-1.8712-5.8112-2.7279-7.1602-1.9038-1.349 0.82407 0.21067 2.9072 3.466 4.6292 7.3576 3.8919 10.076 1.8867 3.6942-2.7253zm-248-19.768c-0.82513-0.81554-2.9668-0.90271-4.7594-0.19374-1.9809 0.78347-1.3925 1.365 1.5002 1.4828 2.6176 0.10658 4.0842-0.47347 3.2591-1.289zm-68.713-32.264c1.8825-3.7121 3.8312-7.5776 4.3302-8.59 0.49906-1.0124-1.2983-1.8407-3.9942-1.8407-3.7531 0-5.1393 2.0127-5.9162 8.59-1.2189 10.319 0.92211 11.026 5.5801 1.8407zm2.3406-16.567c1.7244-2.0536 1.9933-3.6815 0.60809-3.6815-1.3657 0-3.8742 1.6567-5.5744 3.6815-1.7244 2.0536-1.9933 3.6814-0.6081 3.6814 1.3657 0 3.8742-1.6567 5.5744-3.6814zm373.71-13.499c0.84405-1.3499 0.3513-2.4543-1.095-2.4543s-2.6297 1.1044-2.6297 2.4543 0.49276 2.4543 1.095 2.4543c0.60227 0 1.7856-1.1044 2.6297-2.4543zm-305.43-14.726c0.89004-1.4234-1.5283-2.4543-5.7573-2.4543-7.3821 0-14.272-5.1557-11.091-8.2996 0.95281-0.94174-0.82748-2.3739-3.9562-3.1826-9.3538-2.4176-0.70464-5.591 12.058-4.4239 11.077 1.0129 10.354 0.65126-8.0146-4.0092-6.7829-1.721-9.3118-3.67-9.3118-7.1766 0-2.7239 1.6808-4.814 3.8713-4.814 2.1292 0 3.1807-1.1044 2.3366-2.4543-0.84407-1.3499 0.27335-2.4543 2.4831-2.4543 2.2098 0 3.3272-1.1044 2.4832-2.4543-2.4034-3.8437 14.393-2.9255 24.754 1.3531 10.287 4.2482 9.7259 0.47946-0.70033-4.7058-11.044-5.4924-24.559-6.4159-37.652-2.5728-13.775 4.0431-18.454 8.0369-7.5659 6.4574l7.1289-1.0342-0.71391 15.133c-0.39263 8.3234-1.9835 16.388-3.5353 17.922-3.9323 3.8866-3.5273 7.5084 0.66193 5.9195 1.9159-0.72664 5.5475 0.22452 8.0702 2.1137 5.3042 3.972 22.188 4.7569 24.452 1.1366zm283.58-30.779c8.6457-5.5991 6.0982-6.441-6.504-2.1497-11.009 3.749-16.632 2.764-10.068-1.7636 2.7434-1.8921 1.9906-2.1622-3.0236-1.0847-7.7988 1.6758-10.437-1.3645-10.847-12.5-0.20742-5.6323 1.1439-8.4666 4.8939-10.265 2.8492-1.3662 3.7837-2.5587 2.0765-2.65-4.6525-0.24899-3.7374-4.5512 1.2416-5.8372 3.4516-0.8915 3.2587-1.181-0.93753-1.4071-8.1906-0.44138-11.636-6.3319-9.8412-16.824 1.4368-8.3988 1.2533-8.8214-2.0365-4.6897-1.9886 2.4974-4.6906 3.8841-6.0045 3.0815-1.3139-0.80261-2.936 2.6762-3.6048 7.7307-0.66876 5.0545-1.9332 12.273-2.81 16.042-4.9459 21.259 28.928 44.322 47.465 32.317zm26.793-34.791c-0.01599-13.183-0.90647-16.054-6.8967-22.234-3.7831-3.9028-8.2445-7.1396-9.9142-7.1929-1.6697-0.05329-4.6612-0.51347-6.6477-1.0226-5.9938-1.5362-4.6125 5.9656 2.5408 13.8 9.183 10.057 15.415 22.909 13.895 28.654-0.92342 3.49-0.15019 4.5465 2.8902 3.9488 3.3437-0.65728 4.1473-3.7597 4.1325-15.954zm-319.07-27.694c4.5891-4.0496 9.2601-7.3629 10.38-7.3629 1.1197 0 2.0359-1.1044 2.0359-2.4543 0-3.247-16.638-3.1758-18.674 0.07995-2.9649 4.7417-5.8187 17.1-3.9486 17.1 1.0244 0 5.6173-3.3133 10.206-7.3629zm198.65-20.717c0-0.59527-1.1174-1.7649-2.4831-2.5991-1.3657-0.83427-2.4832-0.34722-2.4832 1.0823 0 1.4295 1.1174 2.5991 2.4832 2.5991s2.4831-0.48703 2.4831-1.0823zm30.466-20.162c-1.6812-0.67228-5.0334-0.71321-7.4494-0.090942-2.416 0.62227-1.0405 1.1723 3.0567 1.2223 4.0972 0.050017 6.0739-0.45912 4.3928-1.1314zm-157.78-14.599c-0.82516-0.81555-2.9669-0.90274-4.7594-0.19374-1.9809 0.78346-1.3925 1.365 1.5002 1.4828 2.6176 0.10657 4.0842-0.47348 3.2591-1.289z"/>
 </g>
</svg>
